<?xml version="1.0" encoding="UTF-8"?>
<svg xmlns="http://www.w3.org/2000/svg" xmlns:xlink="http://www.w3.org/1999/xlink" width="1000px" height="500px" viewBox="0 0 1000 500" version="1.1">
<g id="surface1">
<path style=" stroke:none;fill-rule:nonzero;fill:rgb(100%,100%,100%);fill-opacity:1;" d="M 0.707031 500.125 L 1000.25 500.125 L 1000.25 0 L 0.707031 0 Z M 0.707031 500.125 "/>
<path style=" stroke:none;fill-rule:nonzero;fill:rgb(0%,0%,0%);fill-opacity:1;" d="M 668.398438 185.023438 C 648.957031 185.023438 636.8125 182.414062 635.496094 181.539062 C 636.8125 180.074219 648.976562 177.460938 668.398438 177.460938 C 687.835938 177.460938 699.984375 180.074219 701.316406 180.957031 C 699.984375 182.414062 687.855469 185.023438 668.398438 185.023438 M 668.398438 172.394531 C 664.226562 172.394531 627.671875 172.640625 627.671875 181.238281 C 627.671875 189.859375 664.226562 190.101562 668.398438 190.101562 C 672.566406 190.101562 709.140625 189.859375 709.140625 181.238281 C 709.140625 172.640625 672.566406 172.394531 668.398438 172.394531 "/>
<path style=" stroke:none;fill-rule:nonzero;fill:rgb(0%,0%,0%);fill-opacity:1;" d="M 289.257812 199.746094 C 289.257812 199.144531 290.34375 198.597656 291.554688 198.597656 L 299.527344 198.597656 C 300.855469 198.597656 301.824219 199.144531 301.824219 199.746094 L 301.824219 216.601562 L 346.050781 216.601562 L 346.050781 199.746094 C 346.050781 199.144531 347.015625 198.597656 348.34375 198.597656 L 356.316406 198.597656 C 357.523438 198.597656 358.613281 199.144531 358.613281 199.746094 L 358.613281 239.742188 C 358.613281 240.347656 357.523438 240.890625 356.316406 240.890625 L 348.34375 240.890625 C 347.015625 240.890625 346.050781 240.347656 346.050781 239.742188 L 346.050781 222.28125 L 301.824219 222.28125 L 301.824219 239.742188 C 301.824219 240.347656 300.855469 240.890625 299.527344 240.890625 L 291.554688 240.890625 C 290.34375 240.890625 289.257812 240.347656 289.257812 239.742188 Z M 289.257812 199.746094 "/>
<path style=" stroke:none;fill-rule:nonzero;fill:rgb(0%,0%,0%);fill-opacity:1;" d="M 461.699219 226.511719 L 446.835938 209.957031 L 446.234375 209.957031 L 431.492188 226.511719 Z M 406.960938 239.316406 L 444.058594 198.660156 C 444.417969 198.296875 445.507812 197.996094 446.109375 197.996094 L 447.316406 197.996094 C 447.921875 197.996094 449.011719 198.296875 449.371094 198.660156 L 486.226562 239.316406 C 486.953125 240.105469 485.984375 240.890625 484.171875 240.890625 L 476.558594 240.890625 C 475.109375 240.890625 474.265625 240.527344 473.777344 239.984375 L 466.289062 231.707031 L 426.777344 231.707031 C 424.363281 234.484375 421.824219 237.203125 419.410156 239.984375 C 419.042969 240.40625 418.078125 240.890625 416.628906 240.890625 L 409.019531 240.890625 C 407.203125 240.890625 406.238281 240.105469 406.960938 239.316406 "/>
<path style=" stroke:none;fill-rule:nonzero;fill:rgb(0%,0%,0%);fill-opacity:1;" d="M 534.566406 199.746094 C 534.566406 199.144531 535.53125 198.597656 536.863281 198.597656 L 544.835938 198.597656 C 546.042969 198.597656 547.132812 199.144531 547.132812 199.746094 L 547.132812 235.269531 L 579.878906 235.269531 C 581.207031 235.269531 582.175781 235.8125 582.175781 236.417969 L 582.175781 239.742188 C 582.175781 240.347656 581.207031 240.890625 579.878906 240.890625 L 536.863281 240.890625 C 535.53125 240.890625 534.566406 240.347656 534.566406 239.742188 Z M 534.566406 199.746094 "/>
<path style=" stroke:none;fill-rule:nonzero;fill:rgb(0%,0%,0%);fill-opacity:1;" d="M 667.492188 235.453125 C 684.773438 235.453125 698.910156 228.441406 698.910156 219.804688 C 698.910156 211.226562 684.773438 204.035156 667.492188 204.035156 C 650.335938 204.035156 636.199219 211.226562 636.199219 219.804688 C 636.199219 228.441406 650.335938 235.453125 667.492188 235.453125 M 667.492188 197.996094 C 691.660156 197.996094 710.992188 207.722656 710.992188 219.804688 C 710.992188 231.886719 691.660156 241.492188 667.492188 241.492188 C 643.328125 241.492188 624.113281 231.886719 624.113281 219.804688 C 624.113281 207.722656 643.328125 197.996094 667.492188 197.996094 "/>
<path style=" stroke:none;fill-rule:nonzero;fill:rgb(0%,0%,0%);fill-opacity:1;" d="M 81.105469 285.320312 C 81.105469 284.714844 82.195312 284.230469 83.402344 284.230469 L 86.425781 284.230469 L 138.863281 314.5625 L 138.984375 314.5625 L 138.984375 285.984375 C 138.984375 285.378906 139.953125 284.835938 141.28125 284.835938 L 149.015625 284.835938 C 150.222656 284.835938 151.308594 285.378906 151.308594 285.984375 L 151.308594 326.640625 C 151.308594 327.25 150.222656 327.730469 149.015625 327.730469 L 145.871094 327.730469 L 93.433594 296.558594 L 93.3125 296.558594 L 93.3125 325.976562 C 93.3125 326.582031 92.34375 327.125 91.015625 327.125 L 83.402344 327.125 C 82.195312 327.125 81.105469 326.582031 81.105469 325.976562 Z M 81.105469 285.320312 "/>
<path style=" stroke:none;fill-rule:nonzero;fill:rgb(0%,0%,0%);fill-opacity:1;" d="M 254.394531 312.746094 L 239.53125 296.195312 L 238.929688 296.195312 L 224.1875 312.746094 Z M 199.65625 325.554688 L 236.753906 284.898438 C 237.113281 284.535156 238.203125 284.230469 238.808594 284.230469 L 240.015625 284.230469 C 240.617188 284.230469 241.707031 284.535156 242.070312 284.898438 L 278.921875 325.554688 C 279.648438 326.339844 278.679688 327.125 276.871094 327.125 L 269.253906 327.125 C 267.808594 327.125 266.960938 326.765625 266.476562 326.222656 L 258.984375 317.941406 L 219.472656 317.941406 C 217.058594 320.722656 214.519531 323.441406 212.105469 326.222656 C 211.738281 326.640625 210.773438 327.125 209.324219 327.125 L 201.714844 327.125 C 199.898438 327.125 198.933594 326.339844 199.65625 325.554688 "/>
<path style=" stroke:none;fill-rule:nonzero;fill:rgb(0%,0%,0%);fill-opacity:1;" d="M 334.390625 290.515625 L 314.695312 290.515625 C 313.367188 290.515625 312.398438 289.972656 312.398438 289.367188 L 312.398438 285.984375 C 312.398438 285.378906 313.367188 284.835938 314.695312 284.835938 L 366.652344 284.835938 C 367.980469 284.835938 368.949219 285.378906 368.949219 285.984375 L 368.949219 289.367188 C 368.949219 289.972656 367.980469 290.515625 366.652344 290.515625 L 346.957031 290.515625 L 346.957031 325.976562 C 346.957031 326.582031 345.867188 327.125 344.660156 327.125 L 336.6875 327.125 C 335.476562 327.125 334.390625 326.582031 334.390625 325.976562 Z M 334.390625 290.515625 "/>
<path style=" stroke:none;fill-rule:nonzero;fill:rgb(0%,0%,0%);fill-opacity:1;" d="M 417.167969 285.984375 C 417.167969 285.378906 418.253906 284.835938 419.464844 284.835938 L 427.558594 284.835938 C 428.886719 284.835938 429.855469 285.378906 429.855469 285.984375 L 429.855469 310.933594 C 429.855469 316.976562 437.589844 321.6875 449.910156 321.6875 C 462.359375 321.6875 470.210938 317.039062 470.210938 311.058594 L 470.210938 285.984375 C 470.210938 285.378906 471.179688 284.835938 472.507812 284.835938 L 480.605469 284.835938 C 481.8125 284.835938 482.898438 285.378906 482.898438 285.984375 L 482.898438 311.359375 C 482.898438 320.542969 469.003906 327.730469 449.910156 327.730469 C 430.941406 327.730469 417.167969 320.542969 417.167969 311.359375 Z M 417.167969 285.984375 "/>
<path style=" stroke:none;fill-rule:nonzero;fill:rgb(0%,0%,0%);fill-opacity:1;" d="M 575.710938 305.378906 C 583.566406 305.378906 590.453125 302.054688 590.453125 297.886719 C 590.453125 293.957031 583.566406 290.695312 575.710938 290.695312 L 554.203125 290.695312 L 554.203125 305.378906 Z M 541.515625 285.984375 C 541.515625 285.378906 542.484375 284.835938 543.8125 284.835938 L 576.675781 284.835938 C 591.179688 284.835938 603.019531 290.574219 603.019531 297.765625 C 603.019531 303.324219 595.648438 307.914062 585.136719 310.03125 L 601.691406 325.375 C 602.539062 326.160156 601.691406 327.125 599.636719 327.125 L 590.210938 327.125 C 589.242188 327.125 588.519531 326.824219 588.277344 326.582031 L 572.207031 310.574219 L 553.964844 310.574219 L 553.964844 325.976562 C 553.964844 326.582031 552.875 327.125 551.667969 327.125 L 543.8125 327.125 C 542.484375 327.125 541.515625 326.582031 541.515625 325.976562 Z M 541.515625 285.984375 "/>
<path style=" stroke:none;fill-rule:nonzero;fill:rgb(0%,0%,0%);fill-opacity:1;" d="M 701.507812 312.746094 L 686.644531 296.195312 L 686.039062 296.195312 L 671.300781 312.746094 Z M 646.769531 325.554688 L 683.867188 284.898438 C 684.226562 284.535156 685.316406 284.230469 685.917969 284.230469 L 687.125 284.230469 C 687.730469 284.230469 688.820312 284.535156 689.179688 284.898438 L 726.035156 325.554688 C 726.761719 326.339844 725.792969 327.125 723.980469 327.125 L 716.367188 327.125 C 714.917969 327.125 714.074219 326.765625 713.585938 326.222656 L 706.097656 317.941406 L 666.585938 317.941406 C 664.171875 320.722656 661.632812 323.441406 659.214844 326.222656 C 658.851562 326.640625 657.886719 327.125 656.4375 327.125 L 648.824219 327.125 C 647.011719 327.125 646.046875 326.339844 646.769531 325.554688 "/>
<path style=" stroke:none;fill-rule:nonzero;fill:rgb(0%,0%,0%);fill-opacity:1;" d="M 774.375 285.984375 C 774.375 285.378906 775.34375 284.835938 776.671875 284.835938 L 784.648438 284.835938 C 785.855469 284.835938 786.941406 285.378906 786.941406 285.984375 L 786.941406 321.507812 L 819.6875 321.507812 C 821.019531 321.507812 821.988281 322.050781 821.988281 322.65625 L 821.988281 325.976562 C 821.988281 326.582031 821.019531 327.125 819.6875 327.125 L 776.671875 327.125 C 775.34375 327.125 774.375 326.582031 774.375 325.976562 Z M 774.375 285.984375 "/>
<path style=" stroke:none;fill-rule:nonzero;fill:rgb(0%,0%,0%);fill-opacity:1;" d="M 865.496094 321.023438 C 866.582031 320.238281 867.546875 319.332031 868.636719 318.546875 C 869.722656 317.761719 871.417969 317.519531 872.746094 318.066406 C 873.46875 318.367188 882.773438 322.234375 892.078125 322.234375 C 900.414062 322.234375 905.730469 319.695312 905.730469 316.613281 C 905.730469 312.988281 899.449219 310.695312 887.488281 308.21875 C 875.160156 305.617188 865.496094 302.417969 865.496094 295.40625 C 865.496094 290.695312 872.746094 284.230469 891.957031 284.230469 C 904.039062 284.230469 913.101562 287.375 914.3125 287.796875 C 915.277344 288.097656 916.246094 288.945312 915.035156 289.851562 C 914.070312 290.574219 912.984375 291.421875 912.015625 292.148438 C 911.046875 292.929688 909.480469 293.292969 907.785156 292.75 C 906.9375 292.507812 898.480469 289.730469 891.472656 289.730469 C 881.324219 289.730469 877.820312 292.929688 877.820312 295.167969 C 877.820312 298.609375 883.136719 300.726562 893.164062 302.777344 C 907.183594 305.617188 919.144531 308.941406 919.144531 316.3125 C 919.144531 322.59375 907.90625 327.730469 892.199219 327.730469 C 877.457031 327.730469 868.152344 323.863281 866.21875 322.957031 C 865.132812 322.472656 864.289062 322.050781 865.496094 321.023438 "/>
</g>
</svg>
