<?xml version="1.0" encoding="UTF-8" standalone="no"?>
<svg
   xmlns:dc="http://purl.org/dc/elements/1.1/"
   xmlns:cc="http://creativecommons.org/ns#"
   xmlns:rdf="http://www.w3.org/1999/02/22-rdf-syntax-ns#"
   xmlns:svg="http://www.w3.org/2000/svg"
   xmlns="http://www.w3.org/2000/svg"
   xmlns:sodipodi="http://sodipodi.sourceforge.net/DTD/sodipodi-0.dtd"
   xmlns:inkscape="http://www.inkscape.org/namespaces/inkscape"
   version="1.1"
   id="svg2"
   xml:space="preserve"
   width="1333.3333"
   height="1333.3333"
   viewBox="0 0 1333.3333 1333.3333"
   sodipodi:docname="logo_halo_naturals_source.ai"><metadata
     id="metadata8"><rdf:RDF><cc:Work
         rdf:about=""><dc:format>image/svg+xml</dc:format><dc:type
           rdf:resource="http://purl.org/dc/dcmitype/StillImage" /></cc:Work></rdf:RDF></metadata><defs
     id="defs6"><clipPath
       clipPathUnits="userSpaceOnUse"
       id="clipPath20"><path
         d="M 0,1000 H 1000 V 0 H 0 Z"
         id="path18" /></clipPath></defs><sodipodi:namedview
     pagecolor="#ffffff"
     bordercolor="#666666"
     borderopacity="1"
     objecttolerance="10"
     gridtolerance="10"
     guidetolerance="10"
     inkscape:pageopacity="0"
     inkscape:pageshadow="2"
     inkscape:window-width="640"
     inkscape:window-height="480"
     id="namedview4" /><g
     id="g10"
     inkscape:groupmode="layer"
     inkscape:label="logo_halo_naturals_source"
     transform="matrix(1.3333333,0,0,-1.3333333,0,1333.3333)"><path
       d="M 0.705,0 H 1000 V 1000 H 0.705 Z"
       style="fill:#ffffff;fill-opacity:1;fill-rule:nonzero;stroke:none"
       id="path12" /><g
       id="g14"><g
         id="g16"
         clip-path="url(#clipPath20)"><g
           id="g22"
           transform="translate(668.2307,630.0452)"><path
             d="M 0,0 C -19.434,0 -31.578,5.218 -32.892,6.965 -31.578,9.9 -19.415,15.118 0,15.118 19.434,15.118 31.578,9.9 32.911,8.13 31.578,5.218 19.453,0 0,0 m 0,25.252 c -4.169,0 -40.715,-0.49 -40.715,-17.681 0,-17.238 36.546,-17.727 40.715,-17.727 4.169,0 40.734,0.489 40.734,17.727 C 40.734,24.762 4.169,25.252 0,25.252"
             style="fill:#000000;fill-opacity:1;fill-rule:nonzero;stroke:none"
             id="path24" /></g><g
           id="g26"
           transform="translate(289.184,600.6058)"><path
             d="m 0,0 c 0,1.207 1.089,2.296 2.296,2.296 h 7.974 c 1.328,0 2.293,-1.089 2.293,-2.296 V -33.703 H 56.779 V 0 c 0,1.207 0.964,2.296 2.292,2.296 h 7.974 c 1.207,0 2.296,-1.089 2.296,-2.296 v -79.969 c 0,-1.21 -1.089,-2.296 -2.296,-2.296 h -7.974 c -1.328,0 -2.292,1.086 -2.292,2.296 v 34.91 H 12.563 v -34.91 c 0,-1.21 -0.965,-2.296 -2.293,-2.296 H 2.296 C 1.089,-82.265 0,-81.179 0,-79.969 Z"
             style="fill:#000000;fill-opacity:1;fill-rule:nonzero;stroke:none"
             id="path28" /></g><g
           id="g30"
           transform="translate(461.5834,547.091)"><path
             d="m 0,0 -14.859,33.099 h -0.603 L -30.2,0 Z m -54.725,-25.608 37.088,81.297 c 0.361,0.725 1.45,1.329 2.053,1.329 h 1.207 c 0.604,0 1.693,-0.604 2.054,-1.329 l 36.845,-81.297 c 0.725,-1.571 -0.243,-3.142 -2.053,-3.142 h -7.614 c -1.446,0 -2.292,0.725 -2.778,1.811 l -7.488,16.551 h -39.502 c -2.414,-5.556 -4.953,-10.992 -7.367,-16.551 -0.365,-0.843 -1.329,-1.811 -2.779,-1.811 h -7.609 c -1.814,0 -2.779,1.571 -2.057,3.142"
             style="fill:#000000;fill-opacity:1;fill-rule:nonzero;stroke:none"
             id="path32" /></g><g
           id="g34"
           transform="translate(534.4313,600.6058)"><path
             d="m 0,0 c 0,1.207 0.968,2.296 2.296,2.296 h 7.974 c 1.207,0 2.293,-1.089 2.293,-2.296 v -71.03 h 32.738 c 1.329,0 2.297,-1.086 2.297,-2.297 v -6.642 c 0,-1.21 -0.968,-2.296 -2.297,-2.296 H 2.296 C 0.968,-82.265 0,-81.179 0,-79.969 Z"
             style="fill:#000000;fill-opacity:1;fill-rule:nonzero;stroke:none"
             id="path36" /></g><g
           id="g38"
           transform="translate(667.3251,529.2146)"><path
             d="M 0,0 C 17.276,0 31.41,14.013 31.41,31.285 31.41,48.44 17.276,62.814 0,62.814 -17.151,62.814 -31.285,48.44 -31.285,31.285 -31.285,14.013 -17.151,0 0,0 m 0,74.894 c 24.161,0 43.491,-19.447 43.491,-43.609 0,-24.161 -19.33,-43.366 -43.491,-43.366 -24.158,0 -43.366,19.205 -43.366,43.366 0,24.162 19.208,43.609 43.366,43.609"
             style="fill:#000000;fill-opacity:1;fill-rule:nonzero;stroke:none"
             id="path40" /></g><g
           id="g42"
           transform="translate(81.0856,429.5035)"><path
             d="m 0,0 c 0,1.207 1.089,2.175 2.296,2.175 h 3.021 l 52.426,-60.643 h 0.121 v 57.14 c 0,1.207 0.968,2.296 2.296,2.296 h 7.731 c 1.207,0 2.293,-1.089 2.293,-2.296 v -81.297 c 0,-1.211 -1.086,-2.175 -2.293,-2.175 h -3.142 l -52.426,62.331 h -0.121 v -58.828 c 0,-1.211 -0.968,-2.296 -2.296,-2.296 H 2.296 C 1.089,-83.593 0,-82.508 0,-81.297 Z"
             style="fill:#000000;fill-opacity:1;fill-rule:nonzero;stroke:none"
             id="path44" /></g><g
           id="g46"
           transform="translate(254.3313,374.6604)"><path
             d="m 0,0 -14.859,33.099 h -0.603 L -30.2,0 Z m -54.725,-25.608 37.088,81.297 c 0.361,0.725 1.45,1.329 2.053,1.329 h 1.207 c 0.604,0 1.693,-0.604 2.054,-1.329 l 36.845,-81.297 c 0.725,-1.571 -0.243,-3.142 -2.053,-3.142 h -7.614 c -1.446,0 -2.292,0.725 -2.778,1.811 l -7.488,16.551 h -39.502 c -2.414,-5.556 -4.953,-10.992 -7.367,-16.551 -0.365,-0.843 -1.329,-1.811 -2.779,-1.811 h -7.609 c -1.814,0 -2.779,1.571 -2.057,3.142"
             style="fill:#000000;fill-opacity:1;fill-rule:nonzero;stroke:none"
             id="path48" /></g><g
           id="g50"
           transform="translate(334.3068,419.1155)"><path
             d="m 0,0 h -19.69 c -1.329,0 -2.297,1.086 -2.297,2.296 V 9.06 c 0,1.207 0.968,2.296 2.297,2.296 h 51.943 c 1.329,0 2.296,-1.089 2.296,-2.296 V 2.296 C 34.549,1.086 33.582,0 32.253,0 h -19.69 v -70.909 c 0,-1.211 -1.089,-2.296 -2.296,-2.296 H 2.296 C 1.086,-73.205 0,-72.12 0,-70.909 Z"
             style="fill:#000000;fill-opacity:1;fill-rule:nonzero;stroke:none"
             id="path52" /></g><g
           id="g54"
           transform="translate(417.0641,428.1751)"><path
             d="m 0,0 c 0,1.207 1.086,2.296 2.296,2.296 h 8.092 c 1.328,0 2.296,-1.089 2.296,-2.296 v -49.89 c 0,-12.081 7.731,-21.501 20.051,-21.501 12.445,0 20.294,9.299 20.294,21.258 V 0 c 0,1.207 0.968,2.296 2.296,2.296 h 8.096 c 1.207,0 2.292,-1.089 2.292,-2.296 v -50.737 c 0,-18.362 -13.891,-32.735 -32.978,-32.735 C 13.77,-83.472 0,-69.099 0,-50.737 Z"
             style="fill:#000000;fill-opacity:1;fill-rule:nonzero;stroke:none"
             id="path56" /></g><g
           id="g58"
           transform="translate(575.5689,389.3978)"><path
             d="M 0,0 C 7.853,0 14.737,6.646 14.737,14.98 14.737,22.833 7.853,29.354 0,29.354 H -21.504 V 0 Z m -34.189,38.777 c 0,1.207 0.968,2.296 2.297,2.296 H 0.964 C 15.462,41.073 27.3,29.596 27.3,15.22 27.3,4.107 19.93,-5.074 9.42,-9.302 l 16.552,-30.682 c 0.846,-1.572 0,-3.503 -2.054,-3.503 h -9.423 c -0.968,0 -1.693,0.603 -1.932,1.085 l -16.066,32.014 h -18.241 v -30.803 c 0,-1.211 -1.089,-2.296 -2.296,-2.296 h -7.852 c -1.329,0 -2.297,1.085 -2.297,2.296 z"
             style="fill:#000000;fill-opacity:1;fill-rule:nonzero;stroke:none"
             id="path60" /></g><g
           id="g62"
           transform="translate(701.3315,374.6604)"><path
             d="m 0,0 -14.859,33.099 h -0.603 L -30.2,0 Z m -54.725,-25.608 37.088,81.297 c 0.361,0.725 1.45,1.329 2.053,1.329 h 1.207 c 0.604,0 1.693,-0.604 2.054,-1.329 l 36.845,-81.297 c 0.725,-1.571 -0.243,-3.142 -2.053,-3.142 h -7.614 c -1.446,0 -2.292,0.725 -2.778,1.811 l -7.488,16.551 h -39.502 c -2.414,-5.556 -4.953,-10.992 -7.367,-16.551 -0.365,-0.843 -1.329,-1.811 -2.779,-1.811 h -7.609 c -1.814,0 -2.779,1.571 -2.057,3.142"
             style="fill:#000000;fill-opacity:1;fill-rule:nonzero;stroke:none"
             id="path64" /></g><g
           id="g66"
           transform="translate(774.1829,428.1751)"><path
             d="m 0,0 c 0,1.207 0.968,2.296 2.296,2.296 h 7.974 c 1.207,0 2.293,-1.089 2.293,-2.296 v -71.03 h 32.738 c 1.329,0 2.297,-1.086 2.297,-2.297 v -6.642 c 0,-1.21 -0.968,-2.296 -2.297,-2.296 H 2.296 C 0.968,-82.265 0,-81.179 0,-79.969 Z"
             style="fill:#000000;fill-opacity:1;fill-rule:nonzero;stroke:none"
             id="path68" /></g><g
           id="g70"
           transform="translate(865.2783,358.1124)"><path
             d="m 0,0 c 1.089,1.568 2.053,3.382 3.142,4.953 1.086,1.568 2.779,2.053 4.107,0.964 0.725,-0.603 10.024,-8.335 19.326,-8.335 8.335,0 13.652,5.075 13.652,11.235 0,7.249 -6.281,11.838 -18.24,16.791 C 9.663,30.803 0,37.206 0,51.219 c 0,9.42 7.249,22.347 26.454,22.347 12.08,0 21.14,-6.281 22.351,-7.128 0.964,-0.603 1.932,-2.296 0.724,-4.106 -0.967,-1.45 -2.053,-3.143 -3.021,-4.593 -0.967,-1.567 -2.535,-2.292 -4.228,-1.207 -0.846,0.486 -9.302,6.042 -16.308,6.042 -10.145,0 -13.649,-6.402 -13.649,-10.873 0,-6.885 5.314,-11.113 15.341,-15.22 14.013,-5.678 25.972,-12.323 25.972,-27.061 0,-12.562 -11.234,-22.829 -26.939,-22.829 -14.738,0 -24.04,7.731 -25.972,9.542 C -0.361,-2.9 -1.207,-2.053 0,0"
             style="fill:#000000;fill-opacity:1;fill-rule:nonzero;stroke:none"
             id="path72" /></g></g></g></g></svg>
